<svg width="463" height="448" viewBox="0 0 463 448" fill="none" xmlns="http://www.w3.org/2000/svg">
<path fill-rule="evenodd" clip-rule="evenodd" d="M434.917 96.5002C434.917 116.06 419.061 131.917 399.501 131.917C379.941 131.917 364.084 116.06 364.084 96.5002C364.084 76.9401 379.941 61.0835 399.501 61.0835C419.061 61.0835 434.917 76.9401 434.917 96.5002ZM400.77 87.2297C397.325 88.6625 390.44 91.628 380.116 96.1263C378.439 96.7931 377.561 97.4453 377.481 98.0831C377.346 99.1609 378.695 99.5853 380.533 100.163C380.783 100.242 381.042 100.323 381.308 100.41C383.116 100.997 385.549 101.685 386.813 101.712C387.96 101.737 389.241 101.264 390.654 100.294C400.301 93.782 405.281 90.4906 405.593 90.4197C405.814 90.3696 406.119 90.3067 406.326 90.4907C406.534 90.6748 406.513 91.0234 406.491 91.1169C406.358 91.6869 401.059 96.6126 398.317 99.1617C397.463 99.9564 396.856 100.52 396.732 100.649C396.455 100.937 396.172 101.21 395.9 101.472C394.22 103.092 392.96 104.306 395.97 106.289C397.416 107.242 398.573 108.031 399.728 108.817C400.989 109.675 402.246 110.532 403.873 111.599C404.288 111.87 404.684 112.153 405.07 112.427C406.537 113.474 407.855 114.413 409.484 114.264C410.43 114.176 411.408 113.287 411.904 110.633C413.078 104.36 415.384 90.77 415.917 85.1697C415.964 84.6791 415.905 84.0512 415.858 83.7755C415.81 83.4999 415.712 83.1071 415.354 82.8164C414.929 82.4721 414.274 82.3994 413.981 82.4046C412.649 82.4281 410.605 83.1387 400.77 87.2297Z" fill="url(#paint0_linear_22_1143)"/>
<path d="M73.9898 193.37C74.035 194.024 74.035 194.678 74.035 195.338C74.035 215.444 58.7286 238.632 30.7402 238.632V238.62C22.4723 238.632 14.3762 236.264 7.41602 231.799C8.61823 231.943 9.82647 232.016 11.0377 232.019C17.8894 232.025 24.5453 229.726 29.9357 225.492C23.4244 225.369 17.7147 221.123 15.72 214.926C18.0009 215.365 20.3511 215.275 22.5898 214.663C15.491 213.229 10.3839 206.992 10.3839 199.749C10.3839 199.682 10.3839 199.619 10.3839 199.556C12.4991 200.734 14.8673 201.388 17.2898 201.46C10.6038 196.992 8.5429 188.097 12.5804 181.143C20.3059 190.649 31.7044 196.428 43.9404 197.04C42.7141 191.755 44.3894 186.217 48.3425 182.502C54.4711 176.741 64.1099 177.036 69.8709 183.162C73.2787 182.49 76.5448 181.239 79.5338 179.468C78.3979 182.99 76.0206 185.982 72.8448 187.883C75.8609 187.528 78.8076 186.72 81.5827 185.488C79.5398 188.549 76.9667 191.216 73.9898 193.37Z" fill="url(#paint1_linear_22_1143)"/>
<path fill-rule="evenodd" clip-rule="evenodd" d="M146.5 312.375C136.417 312.375 135.155 312.417 131.195 312.598C127.242 312.778 124.542 313.407 122.181 314.325C119.706 315.256 117.461 316.716 115.605 318.607C113.717 320.461 112.256 322.704 111.323 325.181C110.41 327.542 109.778 330.245 109.598 334.197C109.42 338.155 109.375 339.414 109.375 349.5C109.375 359.586 109.417 360.845 109.598 364.805C109.778 368.758 110.407 371.458 111.325 373.819C112.256 376.294 113.716 378.539 115.607 380.395C117.461 382.283 119.704 383.744 122.181 384.677C124.542 385.593 127.242 386.222 131.195 386.402C135.155 386.583 136.417 386.625 146.5 386.625C156.583 386.625 157.845 386.583 161.805 386.402C165.758 386.222 168.458 385.593 170.819 384.675C173.294 383.744 175.539 382.284 177.395 380.393C179.283 378.539 180.744 376.296 181.677 373.819C182.593 371.458 183.222 368.758 183.402 364.805C183.583 360.845 183.625 359.583 183.625 349.5C183.625 339.417 183.583 338.155 183.402 334.195C183.222 330.242 182.593 327.542 181.675 325.181C180.743 322.703 179.281 320.459 177.393 318.605C175.539 316.717 173.296 315.256 170.819 314.323C168.458 313.41 165.756 312.778 161.803 312.598C157.845 312.42 156.586 312.375 146.5 312.375ZM146.5 319.065C156.412 319.065 157.588 319.102 161.503 319.28C165.122 319.446 167.087 320.047 168.396 320.56C170.129 321.231 171.366 322.037 172.666 323.334C173.965 324.634 174.769 325.871 175.44 327.604C175.95 328.913 176.554 330.878 176.72 334.497C176.898 338.412 176.935 339.588 176.935 349.5C176.935 359.412 176.898 360.588 176.72 364.503C176.554 368.122 175.952 370.087 175.44 371.396C174.846 373.009 173.898 374.468 172.666 375.666C171.468 376.898 170.009 377.846 168.396 378.44C167.087 378.95 165.122 379.554 161.503 379.72C157.588 379.898 156.415 379.935 146.5 379.935C136.585 379.935 135.412 379.898 131.497 379.72C127.878 379.554 125.913 378.952 124.604 378.44C122.991 377.846 121.532 376.898 120.334 375.666C119.102 374.468 118.154 373.009 117.56 371.396C117.05 370.087 116.446 368.122 116.28 364.503C116.102 360.588 116.065 359.412 116.065 349.5C116.065 339.588 116.102 338.412 116.28 334.497C116.446 330.878 117.047 328.913 117.56 327.604C118.231 325.871 119.037 324.634 120.334 323.334C121.532 322.102 122.991 321.154 124.604 320.56C125.913 320.05 127.878 319.446 131.497 319.28C135.412 319.102 136.588 319.065 146.5 319.065Z" fill="url(#paint2_linear_22_1143)"/>
<path fill-rule="evenodd" clip-rule="evenodd" d="M146.5 361.887C144.873 361.887 143.263 361.567 141.76 360.944C140.257 360.322 138.891 359.409 137.741 358.259C136.591 357.109 135.678 355.743 135.056 354.24C134.433 352.738 134.113 351.127 134.113 349.5C134.113 347.873 134.433 346.262 135.056 344.76C135.678 343.257 136.591 341.891 137.741 340.741C138.891 339.591 140.257 338.678 141.76 338.056C143.263 337.433 144.873 337.113 146.5 337.113C149.786 337.113 152.936 338.418 155.259 340.741C157.582 343.064 158.888 346.215 158.888 349.5C158.888 352.785 157.582 355.936 155.259 358.259C152.936 360.582 149.786 361.887 146.5 361.887ZM146.5 330.418C141.439 330.418 136.586 332.428 133.007 336.007C129.428 339.585 127.418 344.439 127.418 349.5C127.418 354.561 129.428 359.415 133.007 362.993C136.586 366.572 141.439 368.582 146.5 368.582C151.561 368.582 156.415 366.572 159.993 362.993C163.572 359.415 165.582 354.561 165.582 349.5C165.582 344.439 163.572 339.585 159.993 336.007C156.415 332.428 151.561 330.418 146.5 330.418ZM171.134 330.071C171.134 331.268 170.659 332.415 169.813 333.261C168.967 334.107 167.82 334.582 166.623 334.582C165.427 334.582 164.28 334.107 163.434 333.261C162.588 332.415 162.113 331.268 162.113 330.071C162.113 328.875 162.588 327.728 163.434 326.882C164.28 326.036 165.427 325.561 166.623 325.561C167.82 325.561 168.967 326.036 169.813 326.882C170.659 327.728 171.134 328.875 171.134 330.071Z" fill="url(#paint3_linear_22_1143)"/>
<path fill-rule="evenodd" clip-rule="evenodd" d="M407.999 348.297C382.676 348.297 362.166 368.808 362.166 394.131C362.166 414.412 375.286 431.542 393.505 437.615C395.796 438.016 396.656 436.641 396.656 435.438C396.656 434.349 396.598 430.74 396.598 426.902C385.083 429.021 382.104 424.094 381.187 421.516C380.671 420.198 378.437 416.131 376.489 415.042C374.885 414.183 372.593 412.063 376.432 412.006C380.041 411.948 382.619 415.329 383.479 416.704C387.604 423.636 394.192 421.688 396.827 420.485C397.229 417.506 398.432 415.5 399.749 414.355C389.551 413.209 378.895 409.256 378.895 391.724C378.895 386.74 380.671 382.615 383.593 379.407C383.135 378.261 381.531 373.563 384.051 367.261C384.051 367.261 387.89 366.058 396.656 371.959C400.322 370.928 404.218 370.412 408.114 370.412C412.01 370.412 415.906 370.928 419.572 371.959C428.338 366 432.176 367.261 432.176 367.261C434.697 373.563 433.093 378.261 432.635 379.407C435.557 382.615 437.333 386.683 437.333 391.724C437.333 409.313 426.619 413.209 416.421 414.355C418.083 415.787 419.515 418.537 419.515 422.834C419.515 428.964 419.458 433.891 419.458 435.438C419.458 436.641 420.317 438.073 422.609 437.615C431.707 434.543 439.614 428.696 445.215 420.895C450.816 413.095 453.83 403.734 453.833 394.131C453.833 368.808 433.322 348.297 407.999 348.297Z" fill="url(#paint4_linear_22_1143)"/>
<path d="M144.315 83.5698C140.119 81.6445 135.619 80.226 130.915 79.4136C130.829 79.3979 130.743 79.4371 130.699 79.5154C130.12 80.5447 129.479 81.8874 129.031 82.9428C123.971 82.1852 118.936 82.1852 113.98 82.9428C113.531 81.8639 112.867 80.5447 112.286 79.5154C112.241 79.4397 112.156 79.4005 112.07 79.4136C107.368 80.2234 102.869 81.6419 98.67 83.5698C98.6337 83.5854 98.6025 83.6116 98.5818 83.6455C90.0471 96.3962 87.7091 108.834 88.856 121.117C88.8612 121.177 88.895 121.234 88.9417 121.271C94.5726 125.406 100.027 127.916 105.38 129.58C105.466 129.607 105.557 129.575 105.611 129.505C106.878 127.775 108.007 125.952 108.974 124.035C109.032 123.922 108.977 123.789 108.86 123.745C107.07 123.065 105.365 122.237 103.725 121.297C103.595 121.221 103.585 121.036 103.704 120.947C104.049 120.688 104.394 120.419 104.724 120.147C104.784 120.098 104.867 120.087 104.937 120.119C115.711 125.038 127.375 125.038 138.022 120.119C138.092 120.085 138.175 120.095 138.237 120.145C138.567 120.416 138.912 120.688 139.26 120.947C139.379 121.036 139.371 121.221 139.242 121.297C137.602 122.256 135.897 123.065 134.104 123.742C133.987 123.786 133.935 123.922 133.992 124.035C134.981 125.949 136.11 127.773 137.352 129.502C137.404 129.575 137.498 129.607 137.583 129.58C142.963 127.916 148.417 125.406 154.048 121.271C154.098 121.234 154.129 121.179 154.134 121.119C155.507 106.919 151.835 94.5833 144.4 83.6481C144.382 83.6116 144.351 83.5854 144.315 83.5698ZM110.583 113.638C107.34 113.638 104.667 110.66 104.667 107.002C104.667 103.345 107.288 100.367 110.583 100.367C113.905 100.367 116.552 103.371 116.5 107.002C116.5 110.66 113.879 113.638 110.583 113.638ZM132.458 113.638C129.215 113.638 126.542 110.66 126.542 107.002C126.542 103.345 129.163 100.367 132.458 100.367C135.78 100.367 138.427 103.371 138.375 107.002C138.375 110.66 135.78 113.638 132.458 113.638Z" fill="url(#paint5_linear_22_1143)"/>
<path d="M258.996 13.6589C256.961 13.2114 255.12 12.1306 253.737 10.5717C252.354 9.01279 251.501 7.0559 251.299 4.98183V4.0835H244.255V31.9931C244.257 33.2315 243.868 34.4389 243.145 35.4444C242.423 36.4499 241.402 37.2024 240.227 37.5954C239.053 37.9883 237.784 38.0018 236.602 37.6339C235.419 37.2661 234.383 36.5354 233.639 35.5456C232.972 34.6694 232.564 33.6241 232.46 32.528C232.356 31.4319 232.561 30.3286 233.052 29.343C233.543 28.3574 234.3 27.5287 235.237 26.9507C236.174 26.3727 237.254 26.0684 238.355 26.0722C238.964 26.0688 239.57 26.1583 240.151 26.3377V19.1918C239.474 19.108 238.792 19.0739 238.11 19.0897C235.597 19.1569 233.159 19.9553 231.093 21.3872C229.027 22.8191 227.423 24.8223 226.479 27.1516C225.534 29.4808 225.289 32.035 225.774 34.5014C226.259 36.9678 227.452 39.2392 229.208 41.0377C231.008 42.8674 233.311 44.1209 235.825 44.6387C238.338 45.1566 240.949 44.9156 243.326 43.9462C245.702 42.9768 247.737 41.3229 249.171 39.1946C250.605 37.0662 251.374 34.5596 251.381 31.9931V17.7014C254.222 19.7307 257.628 20.8163 261.119 20.8047V13.8631C260.434 13.8659 259.749 13.7975 259.078 13.6589H258.996Z" fill="url(#paint6_linear_22_1143)"/>
<g clip-path="url(#clip0_22_1143)">
<path d="M286.28 154.995H286.77C291.291 155.011 314.198 155.176 320.375 156.837C322.242 157.344 323.944 158.332 325.309 159.703C326.675 161.073 327.657 162.778 328.157 164.647C328.713 166.737 329.103 169.504 329.367 172.358L329.422 172.93L329.543 174.36L329.587 174.932C329.945 179.959 329.989 184.667 329.994 185.696V186.108C329.989 187.175 329.939 192.202 329.543 197.438L329.499 198.016L329.45 198.588C329.175 201.734 328.768 204.858 328.157 207.157C327.659 209.026 326.677 210.732 325.311 212.103C323.945 213.474 322.243 214.461 320.375 214.967C313.995 216.683 289.745 216.804 286.385 216.809H285.604C283.904 216.809 276.875 216.776 269.505 216.523L268.57 216.49L268.092 216.468L267.151 216.43L266.211 216.391C260.106 216.122 254.292 215.687 251.614 214.961C249.747 214.456 248.045 213.469 246.679 212.1C245.313 210.73 244.331 209.025 243.831 207.157C243.221 204.863 242.814 201.734 242.539 198.588L242.495 198.01L242.451 197.438C242.18 193.711 242.029 189.977 242 186.24L242 185.564C242.011 184.381 242.055 180.295 242.352 175.785L242.39 175.218L242.407 174.932L242.451 174.36L242.572 172.93L242.627 172.358C242.891 169.504 243.281 166.732 243.837 164.647C244.336 162.777 245.317 161.072 246.683 159.701C248.049 158.33 249.752 157.343 251.619 156.837C254.298 156.122 260.111 155.682 266.216 155.407L267.151 155.369L268.097 155.336L268.57 155.319L269.511 155.281C274.745 155.112 279.982 155.019 285.219 155H286.28V154.995ZM277.2 172.65V199.149L300.063 185.905L277.2 172.65Z" fill="url(#paint7_linear_22_1143)"/>
</g>
<path d="M422.667 226C423.551 226 424.399 226.351 425.024 226.976C425.649 227.601 426 228.449 426 229.333V252.667C426 253.551 425.649 254.399 425.024 255.024C424.399 255.649 423.551 256 422.667 256H399.333C398.449 256 397.601 255.649 396.976 255.024C396.351 254.399 396 253.551 396 252.667V229.333C396 228.449 396.351 227.601 396.976 226.976C397.601 226.351 398.449 226 399.333 226H422.667ZM421.833 251.833V243C421.833 241.559 421.261 240.177 420.242 239.158C419.223 238.139 417.841 237.567 416.4 237.567C414.983 237.567 413.333 238.433 412.533 239.733V237.883H407.883V251.833H412.533V243.617C412.533 242.333 413.567 241.283 414.85 241.283C415.469 241.283 416.062 241.529 416.5 241.967C416.938 242.404 417.183 242.998 417.183 243.617V251.833H421.833ZM402.467 235.267C403.209 235.267 403.921 234.972 404.447 234.447C404.972 233.921 405.267 233.209 405.267 232.467C405.267 230.917 404.017 229.65 402.467 229.65C401.72 229.65 401.003 229.947 400.475 230.475C399.947 231.003 399.65 231.72 399.65 232.467C399.65 234.017 400.917 235.267 402.467 235.267ZM404.783 251.833V237.883H400.167V251.833H404.783Z" fill="url(#paint8_linear_22_1143)"/>
<path d="M143.169 183.875H163.835C164.178 183.875 164.506 184.011 164.749 184.253C164.991 184.496 165.127 184.824 165.127 185.167V205.833C165.127 206.176 164.991 206.504 164.749 206.747C164.506 206.989 164.178 207.125 163.835 207.125H143.169C142.826 207.125 142.498 206.989 142.255 206.747C142.013 206.504 141.877 206.176 141.877 205.833V185.167C141.877 184.824 142.013 184.496 142.255 184.253C142.498 184.011 142.826 183.875 143.169 183.875ZM160.348 200.589C160.219 200.525 160.154 200.331 160.154 200.2V190.341C160.154 190.212 160.219 190.018 160.348 189.888L161.581 188.46V188.396H157.17L153.864 196.763L150.1 188.396H145.559V188.46L146.727 190.083C146.987 190.341 147.051 190.731 147.051 191.055V198.189C147.116 198.579 147.051 199.033 146.858 199.422L145.105 201.821V201.886H149.775V201.821L148.024 199.487C147.83 199.097 147.764 198.708 147.83 198.255V191.767C147.895 191.896 147.959 191.896 148.024 192.156L152.434 202.015H152.498L156.781 191.315C156.717 191.702 156.717 192.157 156.717 192.483V200.136C156.717 200.33 156.652 200.459 156.523 200.589L155.225 201.821V201.886H161.581V201.821L160.348 200.589Z" fill="url(#paint9_linear_22_1143)"/>
<path d="M303.417 304.5C303.417 294.61 295.391 286.583 285.501 286.583C275.611 286.583 267.584 294.61 267.584 304.5C267.584 313.172 273.747 320.392 281.917 322.058V309.875H278.334V304.5H281.917V300.021C281.917 296.563 284.73 293.75 288.188 293.75H292.667V299.125H289.084C288.099 299.125 287.292 299.931 287.292 300.917V304.5H292.667V309.875H287.292V322.327C296.34 321.431 303.417 313.799 303.417 304.5Z" fill="url(#paint10_linear_22_1143)"/>
<defs>
<linearGradient id="paint0_linear_22_1143" x1="368.511" y1="77.0962" x2="433.342" y2="80.5963" gradientUnits="userSpaceOnUse">
<stop stop-color="#02A4FF" stop-opacity="0.3"/>
<stop offset="0.357959" stop-color="#03CBFF" stop-opacity="0.45"/>
<stop offset="0.710473" stop-color="#0EC9FF" stop-opacity="0.86"/>
<stop offset="1" stop-color="#02CFFF"/>
</linearGradient>
<linearGradient id="paint1_linear_22_1143" x1="12.0514" y1="191.991" x2="79.8324" y2="196.494" gradientUnits="userSpaceOnUse">
<stop stop-color="#02A4FF" stop-opacity="0.3"/>
<stop offset="0.357959" stop-color="#03CBFF" stop-opacity="0.45"/>
<stop offset="0.710473" stop-color="#0EC9FF" stop-opacity="0.86"/>
<stop offset="1" stop-color="#02CFFF"/>
</linearGradient>
<linearGradient id="paint2_linear_22_1143" x1="114.016" y1="329.16" x2="181.974" y2="332.829" gradientUnits="userSpaceOnUse">
<stop stop-color="#02A4FF" stop-opacity="0.3"/>
<stop offset="0.357959" stop-color="#03CBFF" stop-opacity="0.45"/>
<stop offset="0.710473" stop-color="#0EC9FF" stop-opacity="0.86"/>
<stop offset="1" stop-color="#02CFFF"/>
</linearGradient>
<linearGradient id="paint3_linear_22_1143" x1="130.15" y1="335.286" x2="170.158" y2="337.481" gradientUnits="userSpaceOnUse">
<stop stop-color="#02A4FF" stop-opacity="0.3"/>
<stop offset="0.357959" stop-color="#03CBFF" stop-opacity="0.45"/>
<stop offset="0.710473" stop-color="#0EC9FF" stop-opacity="0.86"/>
<stop offset="1" stop-color="#02CFFF"/>
</linearGradient>
<linearGradient id="paint4_linear_22_1143" x1="367.895" y1="368.508" x2="451.782" y2="373.152" gradientUnits="userSpaceOnUse">
<stop stop-color="#02A4FF" stop-opacity="0.3"/>
<stop offset="0.357959" stop-color="#03CBFF" stop-opacity="0.45"/>
<stop offset="0.710473" stop-color="#0EC9FF" stop-opacity="0.86"/>
<stop offset="1" stop-color="#02CFFF"/>
</linearGradient>
<linearGradient id="paint5_linear_22_1143" x1="92.6986" y1="90.7538" x2="152.828" y2="95.0128" gradientUnits="userSpaceOnUse">
<stop stop-color="#02A4FF" stop-opacity="0.3"/>
<stop offset="0.357959" stop-color="#03CBFF" stop-opacity="0.45"/>
<stop offset="0.710473" stop-color="#0EC9FF" stop-opacity="0.86"/>
<stop offset="1" stop-color="#02CFFF"/>
</linearGradient>
<linearGradient id="paint6_linear_22_1143" x1="227.756" y1="13.3117" x2="260.351" y2="14.8458" gradientUnits="userSpaceOnUse">
<stop stop-color="#02A4FF" stop-opacity="0.3"/>
<stop offset="0.357959" stop-color="#03CBFF" stop-opacity="0.45"/>
<stop offset="0.710473" stop-color="#0EC9FF" stop-opacity="0.86"/>
<stop offset="1" stop-color="#02CFFF"/>
</linearGradient>
<linearGradient id="paint7_linear_22_1143" x1="247.5" y1="168.969" x2="327.799" y2="175.14" gradientUnits="userSpaceOnUse">
<stop stop-color="#02A4FF" stop-opacity="0.3"/>
<stop offset="0.357959" stop-color="#03CBFF" stop-opacity="0.45"/>
<stop offset="0.710473" stop-color="#0EC9FF" stop-opacity="0.86"/>
<stop offset="1" stop-color="#02CFFF"/>
</linearGradient>
<linearGradient id="paint8_linear_22_1143" x1="397.875" y1="232.782" x2="425.333" y2="234.264" gradientUnits="userSpaceOnUse">
<stop stop-color="#02A4FF" stop-opacity="0.3"/>
<stop offset="0.357959" stop-color="#03CBFF" stop-opacity="0.45"/>
<stop offset="0.710473" stop-color="#0EC9FF" stop-opacity="0.86"/>
<stop offset="1" stop-color="#02CFFF"/>
</linearGradient>
<linearGradient id="paint9_linear_22_1143" x1="143.33" y1="189.131" x2="164.61" y2="190.28" gradientUnits="userSpaceOnUse">
<stop stop-color="#02A4FF" stop-opacity="0.3"/>
<stop offset="0.357959" stop-color="#03CBFF" stop-opacity="0.45"/>
<stop offset="0.710473" stop-color="#0EC9FF" stop-opacity="0.86"/>
<stop offset="1" stop-color="#02CFFF"/>
</linearGradient>
<linearGradient id="paint10_linear_22_1143" x1="269.824" y1="294.664" x2="302.62" y2="296.439" gradientUnits="userSpaceOnUse">
<stop stop-color="#02A4FF" stop-opacity="0.3"/>
<stop offset="0.357959" stop-color="#03CBFF" stop-opacity="0.45"/>
<stop offset="0.710473" stop-color="#0EC9FF" stop-opacity="0.86"/>
<stop offset="1" stop-color="#02CFFF"/>
</linearGradient>
<clipPath id="clip0_22_1143">
<rect width="88" height="88" fill="white" transform="translate(242 144)"/>
</clipPath>
</defs>
</svg>
