<svg width="286" height="296" viewBox="0 0 286 296" fill="none" xmlns="http://www.w3.org/2000/svg">
<g filter="url(#filter0_dd_125_2569)">
<g clip-path="url(#clip0_125_2569)">
<rect x="27.5" y="26" width="222" height="224" rx="111" fill="white" fill-opacity="0.01" shape-rendering="crispEdges"/>
<path d="M128.9 22.7998C151.685 22.7998 173.958 29.5562 192.902 42.2145C211.847 54.8728 226.612 72.8646 235.331 93.9147L155.508 126.979C153.328 121.716 149.637 117.218 144.901 114.053C140.165 110.889 134.596 109.2 128.9 109.2V22.7998Z" fill="#E0F2FE"/>
<path d="M235.332 93.9146C242.289 110.71 245.172 128.914 243.746 147.038C242.319 165.162 236.624 182.691 227.125 198.192L153.457 153.048C155.832 149.172 157.256 144.79 157.612 140.259C157.969 135.728 157.248 131.177 155.509 126.978L235.332 93.9146Z" fill="#B9E6FE"/>
<path d="M227.124 198.192C218.742 211.87 207.596 223.647 194.399 232.768C181.202 241.889 166.245 248.153 150.487 251.159L134.297 166.29C138.236 165.538 141.976 163.972 145.275 161.692C148.574 159.412 151.361 156.467 153.456 153.048L227.124 198.192Z" fill="#7CD4FD"/>
<path d="M150.487 251.159C120.475 256.884 89.4182 250.453 64.1484 233.28L112.712 161.82C119.03 166.113 126.794 167.721 134.297 166.29L150.487 251.159Z" fill="#36BFFA"/>
<path d="M64.1496 233.279C43.0044 218.909 27.2402 197.913 19.3398 173.598L101.511 146.899C103.486 152.978 107.427 158.227 112.714 161.82L64.1496 233.279Z" fill="#0086C9"/>
<path d="M19.3395 173.599C13.7216 156.309 12.2755 137.934 15.1195 119.979L100.456 133.494C99.7448 137.983 100.106 142.577 101.511 146.899L19.3395 173.599Z" fill="#1FA5FF"/>
<path d="M15.1191 119.979C17.9631 102.023 25.0163 84.9948 35.7021 70.2871L105.601 121.072C102.93 124.749 101.166 129.006 100.455 133.495L15.1191 119.979Z" fill="#026AA2"/>
<path d="M35.7031 70.2867C44.5953 58.0476 55.8111 47.6799 68.71 39.7754L113.854 113.443C110.629 115.42 107.825 118.012 105.602 121.071L35.7031 70.2867Z" fill="#065986"/>
<path d="M68.709 39.7753C81.608 31.8708 95.9375 26.5844 110.88 24.2178L124.396 109.554C120.66 110.146 117.078 111.467 113.853 113.443L68.709 39.7753Z" fill="#0B4A6F"/>
<path d="M110.881 24.2181C116.842 23.274 122.867 22.7998 128.902 22.7998V109.2C127.393 109.2 125.887 109.318 124.397 109.554L110.881 24.2181Z" fill="#E0F2FE"/>
</g>
</g>
<defs>
<filter id="filter0_dd_125_2569" x="-8.5" y="0" width="294" height="296" filterUnits="userSpaceOnUse" color-interpolation-filters="sRGB">
<feFlood flood-opacity="0" result="BackgroundImageFix"/>
<feColorMatrix in="SourceAlpha" type="matrix" values="0 0 0 0 0 0 0 0 0 0 0 0 0 0 0 0 0 0 127 0" result="hardAlpha"/>
<feMorphology radius="1" operator="dilate" in="SourceAlpha" result="effect1_dropShadow_125_2569"/>
<feOffset/>
<feComposite in2="hardAlpha" operator="out"/>
<feColorMatrix type="matrix" values="0 0 0 0 0 0 0 0 0 0 0 0 0 0 0 0 0 0 0.06 0"/>
<feBlend mode="normal" in2="BackgroundImageFix" result="effect1_dropShadow_125_2569"/>
<feColorMatrix in="SourceAlpha" type="matrix" values="0 0 0 0 0 0 0 0 0 0 0 0 0 0 0 0 0 0 127 0" result="hardAlpha"/>
<feOffset dy="10"/>
<feGaussianBlur stdDeviation="18"/>
<feComposite in2="hardAlpha" operator="out"/>
<feColorMatrix type="matrix" values="0 0 0 0 0 0 0 0 0 0 0 0 0 0 0 0 0 0 0.16 0"/>
<feBlend mode="normal" in2="effect1_dropShadow_125_2569" result="effect2_dropShadow_125_2569"/>
<feBlend mode="normal" in="SourceGraphic" in2="effect2_dropShadow_125_2569" result="shape"/>
</filter>
<clipPath id="clip0_125_2569">
<rect x="27.5" y="26" width="222" height="224" rx="111" fill="white"/>
</clipPath>
</defs>
</svg>
