<svg width="11" height="21" viewBox="0 0 11 21" fill="none" xmlns="http://www.w3.org/2000/svg">
<path d="M0.272657 2.18676C0.182439 2.09129 0.11191 1.97898 0.065094 1.85626C0.0182781 1.73353 -0.00390625 1.60278 -0.000191689 1.47148C0.00352287 1.34017 0.0330629 1.21089 0.0867414 1.091C0.14042 0.971118 0.217186 0.862979 0.312657 0.772761C0.408129 0.682543 0.520435 0.612012 0.643164 0.565197C0.765892 0.518381 0.89664 0.496197 1.02794 0.499912C1.15924 0.503626 1.28853 0.533166 1.40841 0.586845C1.5283 0.640523 1.63644 0.71729 1.72666 0.812761L10.2267 9.81276C10.4022 9.99843 10.5 10.2442 10.5 10.4998C10.5 10.7553 10.4022 11.0011 10.2267 11.1868L1.72666 20.1878C1.63704 20.2853 1.52892 20.3641 1.40859 20.4195C1.28827 20.475 1.15813 20.5059 1.02573 20.5106C0.893337 20.5153 0.761328 20.4937 0.637371 20.4469C0.513414 20.4002 0.399981 20.3293 0.30366 20.2383C0.20734 20.1474 0.130052 20.0382 0.0762854 19.9171C0.0225191 19.796 -0.00665283 19.6655 -0.0095377 19.533C-0.0124226 19.4006 0.0110388 19.2689 0.0594826 19.1456C0.107926 19.0223 0.180387 18.9098 0.272657 18.8148L8.12466 10.4998L0.272657 2.18676Z" fill="#5A5A5A"/>
</svg>
