<svg width="28" height="28" viewBox="0 0 28 28" fill="none" xmlns="http://www.w3.org/2000/svg">
<path d="M0.39961 13.9999C0.39961 6.4799 6.47961 0.399901 13.9996 0.399902C21.5196 0.399902 27.5996 6.4799 27.5996 13.9999C27.5996 21.5199 21.5196 27.5999 13.9996 27.5999C6.47961 27.5999 0.39961 21.5199 0.39961 13.9999ZM25.9996 13.9999C25.9996 7.3599 20.6396 1.9999 13.9996 1.9999C7.35961 1.9999 1.99961 7.3599 1.99961 13.9999C1.99961 20.6399 7.35961 25.9999 13.9996 25.9999C20.6396 25.9999 25.9996 20.6399 25.9996 13.9999Z" fill="white"/>
<path d="M12.6395 20.6402L19.2795 14.0002L12.6395 7.36023L13.7595 6.24023L21.5195 14.0002L13.7595 21.7602L12.6395 20.6402Z" fill="white"/>
<path d="M20.4004 13.2002L20.4004 14.8002L6.80039 14.8002L6.80039 13.2002L20.4004 13.2002Z" fill="white"/>
</svg>
