<svg width="30" height="30" viewBox="0 0 30 30" fill="none" xmlns="http://www.w3.org/2000/svg">
<path fill-rule="evenodd" clip-rule="evenodd" d="M14.9995 17.6513L21.6283 24.2813C21.98 24.633 22.4571 24.8306 22.9545 24.8306C23.4519 24.8306 23.929 24.633 24.2808 24.2813C24.6325 23.9295 24.8301 23.4525 24.8301 22.955C24.8301 22.4576 24.6325 21.9805 24.2808 21.6288L17.6495 15L24.2795 8.37127C24.4536 8.1971 24.5917 7.99035 24.6858 7.76282C24.78 7.5353 24.8285 7.29145 24.8284 7.0452C24.8284 6.79895 24.7798 6.55512 24.6855 6.32764C24.5912 6.10016 24.453 5.89347 24.2789 5.71939C24.1047 5.54531 23.898 5.40723 23.6704 5.31305C23.4429 5.21887 23.1991 5.17042 22.9528 5.17048C22.7066 5.17054 22.4627 5.2191 22.2353 5.31339C22.0078 5.40768 21.8011 5.54585 21.627 5.72002L14.9995 12.3488L8.37076 5.72002C8.19788 5.54085 7.99105 5.39792 7.76234 5.29954C7.53363 5.20117 7.28761 5.14933 7.03865 5.14705C6.7897 5.14477 6.54278 5.1921 6.3123 5.28626C6.08183 5.38043 5.87242 5.51956 5.69628 5.69552C5.52015 5.87149 5.38083 6.08077 5.28645 6.31115C5.19206 6.54154 5.1445 6.78841 5.14655 7.03738C5.14859 7.28634 5.2002 7.5324 5.29836 7.7612C5.39651 7.99 5.53926 8.19697 5.71826 8.37002L12.3495 15L5.71951 21.6288C5.36776 21.9805 5.17015 22.4576 5.17015 22.955C5.17015 23.4525 5.36776 23.9295 5.71951 24.2813C6.07125 24.633 6.54832 24.8306 7.04576 24.8306C7.5432 24.8306 8.02026 24.633 8.37201 24.2813L14.9995 17.65V17.6513Z" fill="url(#paint0_linear_132_5250)"/>
<defs>
<linearGradient id="paint0_linear_132_5250" x1="6.37671" y1="9.59669" x2="24.3925" y2="10.5693" gradientUnits="userSpaceOnUse">
<stop stop-color="#02A4FF" stop-opacity="0.3"/>
<stop offset="0.357959" stop-color="#03CBFF" stop-opacity="0.45"/>
<stop offset="0.710473" stop-color="#0EC9FF" stop-opacity="0.86"/>
<stop offset="1" stop-color="#02CFFF"/>
</linearGradient>
</defs>
</svg>
