<svg width="14" height="15" viewBox="0 0 14 15" fill="none" xmlns="http://www.w3.org/2000/svg">
<path d="M3.5 6.9165C3.5 5.26684 3.5 4.44142 4.01275 3.92925C4.52492 3.4165 5.35033 3.4165 7 3.4165H8.75C10.3997 3.4165 11.2251 3.4165 11.7372 3.92925C12.25 4.44142 12.25 5.26684 12.25 6.9165V9.83317C12.25 11.4828 12.25 12.3083 11.7372 12.8204C11.2251 13.3332 10.3997 13.3332 8.75 13.3332H7C5.35033 13.3332 4.52492 13.3332 4.01275 12.8204C3.5 12.3083 3.5 11.4828 3.5 9.83317V6.9165Z" stroke="#A0A0A0"/>
<path d="M3.5 11.5832C3.03587 11.5832 2.59075 11.3988 2.26256 11.0706C1.93437 10.7424 1.75 10.2973 1.75 9.83317V6.33317C1.75 4.13342 1.75 3.03325 2.43367 2.35017C3.11675 1.6665 4.21692 1.6665 6.41667 1.6665H8.75C9.21413 1.6665 9.65925 1.85088 9.98744 2.17907C10.3156 2.50726 10.5 2.95238 10.5 3.4165" stroke="#A0A0A0"/>
</svg>
