<svg width="30" height="30" viewBox="0 0 30 31" fill="none" xmlns="http://www.w3.org/2000/svg">
<rect y="0.75" width="30" height="30" rx="5" fill="#212129"/>
<path d="M21.9308 9.39161C20.6561 8.80671 19.2892 8.37578 17.8599 8.12897C17.8339 8.1242 17.8079 8.13611 17.7945 8.15991C17.6187 8.47259 17.4239 8.88051 17.2876 9.20113C15.7503 8.97099 14.221 8.97099 12.7153 9.20113C12.5789 8.87338 12.3771 8.47259 12.2005 8.15991C12.1871 8.1369 12.1611 8.125 12.135 8.12897C10.7066 8.37499 9.33963 8.80592 8.06411 9.39161C8.05307 9.39637 8.04361 9.40431 8.03732 9.41462C5.44449 13.2883 4.73421 17.0667 5.08265 20.7983C5.08423 20.8165 5.09447 20.834 5.10867 20.8451C6.81934 22.1014 8.47642 22.864 10.1027 23.3696C10.1288 23.3775 10.1563 23.368 10.1729 23.3465C10.5576 22.8212 10.9005 22.2672 11.1946 21.6847C11.2119 21.6506 11.1954 21.6101 11.1599 21.5966C10.6159 21.3903 10.098 21.1387 9.59977 20.853C9.56037 20.83 9.55721 20.7736 9.59347 20.7466C9.69831 20.6681 9.80318 20.5863 9.9033 20.5038C9.92141 20.4887 9.94665 20.4856 9.96794 20.4951C13.2411 21.9895 16.7846 21.9895 20.0191 20.4951C20.0404 20.4848 20.0657 20.4879 20.0846 20.503C20.1847 20.5856 20.2895 20.6681 20.3952 20.7466C20.4314 20.7736 20.4291 20.83 20.3897 20.853C19.8914 21.1443 19.3735 21.3903 18.8288 21.5958C18.7933 21.6093 18.7775 21.6506 18.7949 21.6847C19.0952 22.2664 19.4381 22.8204 19.8157 23.3457C19.8315 23.368 19.8599 23.3775 19.8859 23.3696C21.5201 22.864 23.1772 22.1014 24.8879 20.8451C24.9028 20.834 24.9123 20.8173 24.9139 20.799C25.3309 16.4849 24.2154 12.7375 21.9568 9.41541C21.9513 9.40431 21.9419 9.39637 21.9308 9.39161ZM11.6834 18.5261C10.6979 18.5261 9.88594 17.6214 9.88594 16.5103C9.88594 15.3993 10.6822 14.4946 11.6834 14.4946C12.6924 14.4946 13.4965 15.4072 13.4807 16.5103C13.4807 17.6214 12.6845 18.5261 11.6834 18.5261ZM18.329 18.5261C17.3435 18.5261 16.5316 17.6214 16.5316 16.5103C16.5316 15.3993 17.3278 14.4946 18.329 14.4946C19.338 14.4946 20.1421 15.4072 20.1264 16.5103C20.1264 17.6214 19.338 18.5261 18.329 18.5261Z" fill="#E3DDDD"/>
</svg>
