<svg width="30" height="30" viewBox="0 0 30 31" fill="none" xmlns="http://www.w3.org/2000/svg">
<rect y="0.75" width="30" height="30" rx="5" fill="#212129"/>
<path fill-rule="evenodd" clip-rule="evenodd" d="M15 5.99658C9.475 5.99658 5 10.4716 5 15.9966C5 20.4216 7.8625 24.1591 11.8375 25.4841C12.3375 25.5716 12.525 25.2716 12.525 25.0091C12.525 24.7716 12.5125 23.9841 12.5125 23.1466C10 23.6091 9.35 22.5341 9.15 21.9716C9.0375 21.6841 8.55 20.7966 8.125 20.5591C7.775 20.3716 7.275 19.9091 8.1125 19.8966C8.9 19.8841 9.4625 20.6216 9.65 20.9216C10.55 22.4341 11.9875 22.0091 12.5625 21.7466C12.65 21.0966 12.9125 20.6591 13.2 20.4091C10.975 20.1591 8.65 19.2966 8.65 15.4716C8.65 14.3841 9.0375 13.4841 9.675 12.7841C9.575 12.5341 9.225 11.5091 9.775 10.1341C9.775 10.1341 10.6125 9.87158 12.525 11.1591C13.325 10.9341 14.175 10.8216 15.025 10.8216C15.875 10.8216 16.725 10.9341 17.525 11.1591C19.4375 9.85908 20.275 10.1341 20.275 10.1341C20.825 11.5091 20.475 12.5341 20.375 12.7841C21.0125 13.4841 21.4 14.3716 21.4 15.4716C21.4 19.3091 19.0625 20.1591 16.8375 20.4091C17.2 20.7216 17.5125 21.3216 17.5125 22.2591C17.5125 23.5966 17.5 24.6716 17.5 25.0091C17.5 25.2716 17.6875 25.5841 18.1875 25.4841C20.1727 24.8139 21.8977 23.5381 23.1198 21.8361C24.3419 20.1342 24.9995 18.0918 25 15.9966C25 10.4716 20.525 5.99658 15 5.99658Z" fill="#E3DDDD"/>
</svg>
