<svg width="20" height="20" viewBox="0 0 20 20" fill="none" xmlns="http://www.w3.org/2000/svg">
<path d="M9.99935 18.9582C5.05768 18.9582 1.04102 14.9415 1.04102 9.99984C1.04102 5.05817 5.05768 1.0415 9.99935 1.0415C14.941 1.0415 18.9577 5.05817 18.9577 9.99984C18.9577 14.9415 14.941 18.9582 9.99935 18.9582ZM9.99935 2.2915C5.74935 2.2915 2.29102 5.74984 2.29102 9.99984C2.29102 14.2498 5.74935 17.7082 9.99935 17.7082C14.2493 17.7082 17.7077 14.2498 17.7077 9.99984C17.7077 5.74984 14.2493 2.2915 9.99935 2.2915Z" fill="#5A5A5A"/>
<path d="M10 11.4582C9.65833 11.4582 9.375 11.1748 9.375 10.8332V6.6665C9.375 6.32484 9.65833 6.0415 10 6.0415C10.3417 6.0415 10.625 6.32484 10.625 6.6665V10.8332C10.625 11.1748 10.3417 11.4582 10 11.4582Z" fill="#5A5A5A"/>
<path d="M9.99935 14.1669C9.89102 14.1669 9.78268 14.1419 9.68268 14.1002C9.58268 14.0586 9.49102 14.0002 9.40768 13.9252C9.33268 13.8419 9.27435 13.7586 9.23268 13.6502C9.19102 13.5502 9.16602 13.4419 9.16602 13.3336C9.16602 13.2252 9.19102 13.1169 9.23268 13.0169C9.27435 12.9169 9.33268 12.8252 9.40768 12.7419C9.49102 12.6669 9.58268 12.6086 9.68268 12.5669C9.88268 12.4836 10.116 12.4836 10.316 12.5669C10.416 12.6086 10.5077 12.6669 10.591 12.7419C10.666 12.8252 10.7243 12.9169 10.766 13.0169C10.8077 13.1169 10.8327 13.2252 10.8327 13.3336C10.8327 13.4419 10.8077 13.5502 10.766 13.6502C10.7243 13.7586 10.666 13.8419 10.591 13.9252C10.5077 14.0002 10.416 14.0586 10.316 14.1002C10.216 14.1419 10.1077 14.1669 9.99935 14.1669Z" fill="#5A5A5A"/>
</svg>
