<svg width="30" height="31" viewBox="0 0 30 31" fill="none" xmlns="http://www.w3.org/2000/svg">
<rect y="0.75" width="30" height="30" rx="5" fill="#212129"/>
<path fill-rule="evenodd" clip-rule="evenodd" d="M15 6.75C12.5556 6.75 12.2496 6.7602 11.2896 6.804C10.3314 6.8478 9.6768 7.0002 9.1044 7.2228C8.5044 7.4484 7.9602 7.8024 7.5102 8.2608C7.05253 8.71028 6.69831 9.2541 6.4722 9.8544C6.2508 10.4268 6.0978 11.082 6.054 12.0402C6.0108 12.9996 6 13.305 6 15.75C6 18.195 6.0102 18.5004 6.054 19.4604C6.0978 20.4186 6.2502 21.0732 6.4728 21.6456C6.6984 22.2456 7.0524 22.7898 7.5108 23.2398C7.96029 23.6975 8.50411 24.0517 9.1044 24.2778C9.6768 24.4998 10.3314 24.6522 11.2896 24.696C12.2496 24.7398 12.5556 24.75 15 24.75C17.4444 24.75 17.7504 24.7398 18.7104 24.696C19.6686 24.6522 20.3232 24.4998 20.8956 24.2772C21.4956 24.0516 22.0398 23.6976 22.4898 23.2392C22.9475 22.7897 23.3017 22.2459 23.5278 21.6456C23.7498 21.0732 23.9022 20.4186 23.946 19.4604C23.9898 18.5004 24 18.1944 24 15.75C24 13.3056 23.9898 12.9996 23.946 12.0396C23.9022 11.0814 23.7498 10.4268 23.5272 9.8544C23.3012 9.25384 22.947 8.70979 22.4892 8.2602C22.0397 7.80253 21.4959 7.44831 20.8956 7.2222C20.3232 7.0008 19.668 6.8478 18.7098 6.804C17.7504 6.7608 17.445 6.75 15 6.75ZM15 8.3718C17.403 8.3718 17.688 8.3808 18.6372 8.424C19.5144 8.4642 19.9908 8.61 20.3082 8.7342C20.7282 8.8968 21.0282 9.0924 21.3432 9.4068C21.6582 9.7218 21.8532 10.0218 22.0158 10.4418C22.1394 10.7592 22.2858 11.2356 22.326 12.1128C22.3692 13.062 22.3782 13.347 22.3782 15.75C22.3782 18.153 22.3692 18.438 22.326 19.3872C22.2858 20.2644 22.14 20.7408 22.0158 21.0582C21.8718 21.4491 21.6419 21.8028 21.3432 22.0932C21.0528 22.392 20.6992 22.6218 20.3082 22.7658C19.9908 22.8894 19.5144 23.0358 18.6372 23.076C17.688 23.1192 17.4036 23.1282 15 23.1282C12.5964 23.1282 12.312 23.1192 11.3628 23.076C10.4856 23.0358 10.0092 22.89 9.6918 22.7658C9.30087 22.6218 8.9472 22.3919 8.6568 22.0932C8.35811 21.8028 8.12828 21.4491 7.9842 21.0582C7.8606 20.7408 7.7142 20.2644 7.674 19.3872C7.6308 18.438 7.6218 18.153 7.6218 15.75C7.6218 13.347 7.6308 13.062 7.674 12.1128C7.7142 11.2356 7.86 10.7592 7.9842 10.4418C8.1468 10.0218 8.3424 9.7218 8.6568 9.4068C8.94716 9.10803 9.30085 8.87819 9.6918 8.7342C10.0092 8.6106 10.4856 8.4642 11.3628 8.424C12.312 8.3808 12.597 8.3718 15 8.3718Z" fill="#E3DDDD"/>
<path fill-rule="evenodd" clip-rule="evenodd" d="M15 18.7528C14.6057 18.7528 14.2152 18.6751 13.8508 18.5242C13.4865 18.3733 13.1554 18.1521 12.8766 17.8732C12.5977 17.5944 12.3765 17.2633 12.2256 16.899C12.0747 16.5346 11.997 16.1441 11.997 15.7498C11.997 15.3554 12.0747 14.9649 12.2256 14.6006C12.3765 14.2362 12.5977 13.9052 12.8766 13.6263C13.1554 13.3475 13.4865 13.1263 13.8508 12.9754C14.2152 12.8245 14.6057 12.7468 15 12.7468C15.7965 12.7468 16.5603 13.0632 17.1235 13.6263C17.6866 14.1895 18.003 14.9533 18.003 15.7498C18.003 16.5462 17.6866 17.3101 17.1235 17.8732C16.5603 18.4364 15.7965 18.7528 15 18.7528ZM15 11.1238C13.7731 11.1238 12.5965 11.6112 11.7289 12.4787C10.8614 13.3463 10.374 14.5229 10.374 15.7498C10.374 16.9767 10.8614 18.1533 11.7289 19.0209C12.5965 19.8884 13.7731 20.3758 15 20.3758C16.2269 20.3758 17.4036 19.8884 18.2711 19.0209C19.1386 18.1533 19.626 16.9767 19.626 15.7498C19.626 14.5229 19.1386 13.3463 18.2711 12.4787C17.4036 11.6112 16.2269 11.1238 15 11.1238ZM20.9718 11.0398C20.9718 11.3298 20.8566 11.6079 20.6515 11.813C20.4465 12.0181 20.1683 12.1333 19.8783 12.1333C19.5883 12.1333 19.3102 12.0181 19.1051 11.813C18.9 11.6079 18.7848 11.3298 18.7848 11.0398C18.7848 10.7498 18.9 10.4716 19.1051 10.2666C19.3102 10.0615 19.5883 9.94629 19.8783 9.94629C20.1683 9.94629 20.4465 10.0615 20.6515 10.2666C20.8566 10.4716 20.9718 10.7498 20.9718 11.0398Z" fill="#E3DDDD"/>
</svg>
