<svg width="15" height="15" viewBox="0 0 15 15" fill="#5a5a5a" xmlns="http://www.w3.org/2000/svg">
<path d="M15 4.2203H14.0207C13.9329 3.3549 13.7419 2.49312 13.4504 2.07865C13.1584 1.66449 12.8447 1.4128 12.509 1.31483C12.1713 1.22079 11.7839 1.17045 11.3432 1.17045H8.97227V12.3999C8.97227 12.8074 9.01408 13.1221 9.09649 13.3461C9.178 13.5673 9.36989 13.7421 9.67366 13.8648C9.97383 13.9884 10.4163 14.0547 11.0007 14.0547V15H4.00054V14.0547C4.85743 14.0547 5.41025 13.9266 5.65748 13.6803C5.90502 13.4296 6.02803 13.0048 6.02803 12.3996V1.17045H3.9443C3.3599 1.17045 2.87626 1.21777 2.49188 1.31091C2.1075 1.40225 1.76853 1.65756 1.47768 2.07262C1.18594 2.4886 1.01931 3.3546 0.977502 4.22H0V0H14.9997L15 4.2203Z" fill="inherit"/>
</svg>
