<svg width="30" height="30" viewBox="0 0 30 31" fill="none" xmlns="http://www.w3.org/2000/svg">
<rect y="0.75" width="30" height="30" rx="5" fill="#212129"/>
<path fill-rule="evenodd" clip-rule="evenodd" d="M25 15.75C25 21.2728 20.5228 25.75 15 25.75C9.47715 25.75 5 21.2728 5 15.75C5 10.2272 9.47715 5.75 15 5.75C20.5228 5.75 25 10.2272 25 15.75ZM15.3583 13.1325C14.3857 13.537 12.4418 14.3743 9.52656 15.6445C9.05318 15.8327 8.8052 16.0169 8.78262 16.1969C8.74447 16.5013 9.12558 16.6211 9.64454 16.7843C9.71513 16.8065 9.78828 16.8295 9.86326 16.8539C10.3738 17.0198 11.0607 17.214 11.4177 17.2217C11.7416 17.2287 12.1031 17.0952 12.5022 16.8211C15.2259 14.9825 16.632 14.0532 16.7202 14.0332C16.7825 14.019 16.8688 14.0012 16.9273 14.0532C16.9858 14.1052 16.98 14.2036 16.9738 14.23C16.9361 14.391 15.4401 15.7818 14.6659 16.5015C14.4246 16.7259 14.2534 16.885 14.2184 16.9214C14.14 17.0028 14.0601 17.0798 13.9833 17.1539C13.509 17.6111 13.1532 17.954 14.003 18.514C14.4113 18.7831 14.7381 19.0056 15.0641 19.2276C15.4201 19.4701 15.7752 19.7119 16.2347 20.0131C16.3517 20.0898 16.4635 20.1695 16.5724 20.2471C16.9867 20.5425 17.3589 20.8079 17.8188 20.7655C18.086 20.741 18.362 20.4897 18.5022 19.7403C18.8335 17.9693 19.4847 14.1321 19.6352 12.5508C19.6483 12.4123 19.6318 12.235 19.6184 12.1572C19.6051 12.0793 19.5773 11.9684 19.4761 11.8863C19.3563 11.7891 19.1713 11.7686 19.0886 11.7701C18.7125 11.7767 18.1354 11.9774 15.3583 13.1325Z" fill="#E3DDDD"/>
</svg>
