<svg width="12" height="12" viewBox="0 0 12 12" fill="#5a5a5a" xmlns="http://www.w3.org/2000/svg">
<path d="M6.66444 6.32049L10.7102 6.32491C10.8876 6.3249 11.0577 6.25443 11.1831 6.12899C11.3085 6.00356 11.379 5.83345 11.379 5.65607C11.379 5.47869 11.3086 5.30859 11.1832 5.18317C11.0578 5.05776 10.8877 4.98731 10.7103 4.98732L6.66453 4.99232L6.66953 0.946576C6.66954 0.769201 6.59909 0.599095 6.47368 0.47368C6.34827 0.348266 6.17816 0.277815 6.00078 0.277828C5.82341 0.277841 5.65329 0.348315 5.52786 0.473747C5.40243 0.59918 5.33195 0.769296 5.33194 0.946671L5.33636 4.99241L1.29062 4.98799C1.20269 4.98764 1.11556 5.0047 1.03425 5.03818C0.952948 5.07167 0.879073 5.12093 0.816894 5.18311C0.754714 5.24529 0.705459 5.31916 0.671971 5.40047C0.638483 5.48177 0.621424 5.56891 0.621778 5.65683C0.621412 5.74476 0.638457 5.83189 0.671934 5.91319C0.705411 5.9945 0.754655 6.06836 0.816826 6.13053C0.878997 6.1927 0.952864 6.24195 1.03417 6.27543C1.11547 6.3089 1.2026 6.32595 1.29053 6.32558L5.33627 6.32059L5.33127 10.3663C5.33091 10.4543 5.34795 10.5414 5.38143 10.6227C5.4149 10.704 5.46415 10.7779 5.52632 10.84C5.58849 10.9022 5.66236 10.9514 5.74366 10.9849C5.82496 11.0184 5.91209 11.0354 6.00002 11.0351C6.08795 11.0354 6.17508 11.0184 6.25639 10.9849C6.33769 10.9514 6.41157 10.9021 6.47375 10.84C6.53593 10.7778 6.58518 10.7039 6.61867 10.6226C6.65216 10.5413 6.66922 10.4542 6.66886 10.3662L6.66444 6.32049Z" fill="inherit"/>
</svg>
