<svg width="30" height="30" viewBox="0 0 30 31" fill="none" xmlns="http://www.w3.org/2000/svg">
<rect y="0.75" width="30" height="30" rx="5" fill="#212129"/>
<path d="M22.9525 11.6702C22.9647 11.8465 22.9647 12.0229 22.9647 12.2008C22.9647 17.6227 18.8371 23.8758 11.2897 23.8758V23.8725C9.06013 23.8758 6.8769 23.2372 5 22.033C5.32419 22.072 5.65001 22.0915 5.97664 22.0923C7.82429 22.0939 9.61913 21.474 11.0727 20.3324C9.31688 20.2991 7.77717 19.1543 7.23928 17.4829C7.85436 17.6016 8.48812 17.5772 9.09181 17.4123C7.17753 17.0255 5.80033 15.3436 5.80033 13.3903C5.80033 13.3724 5.80033 13.3554 5.80033 13.3383C6.37071 13.656 7.00934 13.8323 7.6626 13.8518C5.85964 12.6469 5.30388 10.2483 6.39265 8.37305C8.47593 10.9365 11.5497 12.4949 14.8493 12.6599C14.5186 11.2347 14.9703 9.74132 16.0364 8.73949C17.689 7.18597 20.2882 7.26559 21.8418 8.91743C22.7607 8.73624 23.6415 8.39905 24.4475 7.92129C24.1412 8.87112 23.5001 9.67794 22.6437 10.1906C23.457 10.0948 24.2517 9.87701 25 9.54469C24.4491 10.3702 23.7552 11.0893 22.9525 11.6702Z" fill="#E3DDDD"/>
</svg>
