<svg width="18" height="20" viewBox="0 0 18 20" fill="none" xmlns="http://www.w3.org/2000/svg">
  <path
    d="M8.931 0.558176C9.05484 0.403217 9.20818 0.27436 9.38216 0.179063C9.55613 0.083767 9.74728 0.023924 9.94454 0.00299848C10.1418 -0.017927 10.3412 0.000480497 10.5313 0.0571557C10.7214 0.113831 10.8984 0.207648 11.052 0.333176L15.945 4.32918C16.2141 4.54888 16.3986 4.85518 16.467 5.19576C16.5354 5.53635 16.4834 5.89012 16.32 6.19668C15.8922 6.06593 15.4473 5.9997 15 6.00018H14.55L14.997 5.49018L12.42 3.38568L10.2945 6.00168H8.361L11.2575 2.43768L10.1025 1.49418L6.5055 6.00018H4.5855L8.931 0.558176ZM12.75 13.5002C12.5511 13.5002 12.3603 13.5792 12.2197 13.7198C12.079 13.8605 12 14.0513 12 14.2502C12 14.4491 12.079 14.6399 12.2197 14.7805C12.3603 14.9212 12.5511 15.0002 12.75 15.0002H14.25C14.4489 15.0002 14.6397 14.9212 14.7803 14.7805C14.921 14.6399 15 14.4491 15 14.2502C15 14.0513 14.921 13.8605 14.7803 13.7198C14.6397 13.5792 14.4489 13.5002 14.25 13.5002H12.75ZM1.5 6.75018C1.5 6.55126 1.57902 6.3605 1.71967 6.21985C1.86032 6.07919 2.05109 6.00018 2.25 6.00018H3.087L4.2795 4.50018H2.25C1.65326 4.50018 1.08097 4.73723 0.65901 5.15919C0.237053 5.58114 0 6.15344 0 6.75018V15.7502C0 16.7447 0.395088 17.6986 1.09835 18.4018C1.80161 19.1051 2.75544 19.5002 3.75 19.5002H15C15.7956 19.5002 16.5587 19.1841 17.1213 18.6215C17.6839 18.0589 18 17.2958 18 16.5002V10.5002C18 9.70453 17.6839 8.94146 17.1213 8.37886C16.5587 7.81625 15.7956 7.50018 15 7.50018H2.25C2.05109 7.50018 1.86032 7.42116 1.71967 7.28051C1.57902 7.13985 1.5 6.94909 1.5 6.75018ZM1.5 15.7502V8.87268C1.734 8.95518 1.9875 9.00018 2.25 9.00018H15C15.3978 9.00018 15.7794 9.15821 16.0607 9.43952C16.342 9.72082 16.5 10.1024 16.5 10.5002V16.5002C16.5 16.898 16.342 17.2795 16.0607 17.5608C15.7794 17.8421 15.3978 18.0002 15 18.0002H3.75C3.15326 18.0002 2.58097 17.7631 2.15901 17.3412C1.73705 16.9192 1.5 16.3469 1.5 15.7502Z"
    fill="url(#paint0_linear_1100_74)"
  />
  <defs>
    <linearGradient
      id="paint0_linear_1100_74"
      x1="1.125"
      y1="4.40408"
      x2="17.6069"
      y2="5.22524"
      gradientUnits="userSpaceOnUse"
    >
      <stop stop-color="#02A4FF" stop-opacity="0.3" />
      <stop offset="0.357959" stop-color="#03CBFF" stop-opacity="0.45" />
      <stop offset="0.710473" stop-color="#0EC9FF" stop-opacity="0.86" />
      <stop offset="1" stop-color="#02CFFF" />
    </linearGradient>
  </defs>
</svg>
