<svg width="23" height="21" viewBox="0 0 23 21" fill="none" xmlns="http://www.w3.org/2000/svg">
<path d="M0.0093779 18.8179C0.0518254 19.0039 0.212978 19.1293 0.394613 19.1293L13.4257 19.1243C13.6827 19.3175 14.0252 19.3352 14.2947 19.177C14.3969 19.1134 14.3184 19.1303 14.6965 19.1238C15.1096 19.4549 15.5627 19.7107 16.059 19.8927V20.1994C16.059 20.6409 16.4158 21 16.8546 21H18.4521C18.8899 21 19.246 20.6409 19.246 20.1994L19.2608 19.884C19.7961 19.6918 20.2901 19.4047 20.7455 19.024L21.0085 19.1757C21.3901 19.3973 21.8767 19.2629 22.0944 18.8837L22.8955 17.4888C23.1109 17.1069 22.9794 16.6182 22.6023 16.3991C22.1448 16.1488 22.4167 16.4575 22.4167 15.375C22.4167 14.2925 22.1573 14.6109 22.6013 14.3514C22.9787 14.1326 23.1102 13.6424 22.894 13.2582C22.0125 11.7243 22.0567 11.7536 21.8671 11.6185L22.9542 7.70477C23.1736 6.90141 22.5771 6.11147 21.7492 6.11147H19.8758V2.57769C19.8758 1.87814 19.3102 1.30871 18.615 1.30871H9.78859L9.64348 0.867674C9.47147 0.348907 8.98974 0 8.44483 0H3.6226C3.0772 0 2.59547 0.348907 2.4237 0.868419L2.27884 1.30871H1.26084C0.565637 1.30871 0 1.87789 0 2.57769L0.00962473 18.8177L0.0093779 18.8179ZM21.9434 13.818C21.6532 13.9868 21.4977 14.3206 21.5562 14.6486C21.6539 15.1642 21.6485 15.6072 21.5562 16.1049C21.4982 16.4307 21.6529 16.7634 21.9412 16.9328L22.2109 17.095L21.4032 18.4866C21.1534 18.3433 21.0056 18.2291 20.7462 18.2291C20.3644 18.2291 20.2534 18.4303 19.8568 18.696C18.857 19.3699 18.4713 18.9748 18.4516 20.2066L16.8499 20.1991C16.8499 18.8251 16.2882 19.4601 15.0854 18.4211C14.7658 18.1799 14.4154 18.1854 14.175 18.3342L13.8164 18.3466L13.099 17.0868L13.3655 16.9326C13.6567 16.7632 13.8112 16.4294 13.7503 16.1019C13.446 14.4696 14.2868 14.3834 13.0983 13.6556C13.9642 12.133 13.8665 12.284 13.9144 12.2676C15.06 12.9401 14.8571 12.1345 16.3109 11.6153C16.6601 11.4884 16.8504 11.1618 16.8504 10.8569L16.8556 10.544L18.4573 10.5514C18.4573 10.8871 18.4555 10.8713 18.4622 10.9083C18.4827 11.2266 18.6927 11.504 18.997 11.6155C20.3351 12.0921 20.3232 12.8937 21.2753 12.3362L21.412 12.2651C21.6258 12.6347 21.4661 12.3543 22.2057 13.664L21.9444 13.818H21.9434ZM16.06 10.5514C16.0424 10.9147 16.0607 10.8574 16.0054 10.8817H6.41056C5.95351 10.8817 5.95351 10.1864 6.41056 10.1864H16.1488C16.0901 10.3006 16.06 10.4233 16.06 10.5514ZM5.15194 13.6953H12.3095C12.3229 13.9682 12.4687 14.2126 12.7039 14.3526C12.8046 14.41 13.5985 14.3906 5.15194 14.3906C4.69489 14.3906 4.69489 13.6953 5.15194 13.6953ZM17.7852 5.49039V6.11122H4.79163C4.02486 6.11122 3.34422 6.63123 3.13643 7.37598L2.08906 11.1477V5.49039C2.08906 5.22343 2.30524 5.00614 2.57054 5.00614H17.3035C17.5688 5.00614 17.7852 5.22343 17.7852 5.49039ZM20.7376 14.2829C19.6875 11.3053 15.4566 11.3915 14.5235 14.408C13.6819 17.1692 16.5062 19.5574 19.0041 18.3836C19.2477 18.3836 19.2154 18.3913 19.223 18.3654C19.2677 18.1467 19.1929 18.3818 19.7206 17.941C20.7662 17.0922 21.2168 15.6286 20.7376 14.2829ZM17.6517 12.8857C19.012 12.8857 20.1396 14.0176 20.1396 15.3864C20.1396 16.7642 19.0209 17.8896 17.6517 17.8896C15.8973 17.8896 14.6745 16.0895 15.3571 14.4251C15.7599 13.4678 16.6824 12.8857 17.6517 12.8857ZM16.3018 14.9767H17.2596C17.2596 13.9573 17.2167 13.8607 17.4091 13.7057C17.6663 13.4981 18.0491 13.6839 18.0491 14.0156V14.9767H19.0041C19.5263 14.9767 19.5263 15.7714 19.0041 15.7714H18.0491V16.7349C18.0491 17.2606 17.2596 17.2606 17.2596 16.7349V15.7714H16.3018C15.7796 15.7714 15.7796 14.9767 16.3018 14.9767Z" fill="white"/>
</svg>
