<svg width="23" height="25" viewBox="0 0 23 25" fill="none" xmlns="http://www.w3.org/2000/svg">
<path d="M2.32921 10.8601L5.17605 12.0865C4.85507 12.9284 4.59903 13.7955 4.41035 14.6795L4.30237 15.1895L8.38367 19.4322L8.8745 19.3226C9.72545 19.1265 10.56 18.8605 11.3704 18.5271L12.5509 21.4847C12.5624 21.514 12.5808 21.5399 12.6044 21.56C12.628 21.5801 12.656 21.5938 12.6859 21.5999C12.7158 21.6059 12.7468 21.6042 12.7759 21.5948C12.805 21.5853 12.8314 21.5686 12.8527 21.5459L14.6369 19.6923C14.9281 19.3898 15.155 19.0273 15.3029 18.628C15.4509 18.2288 15.5166 17.8018 15.4959 17.3746L15.4321 16.1839C18.7354 13.6495 22.078 9.20531 22.9885 1.44909C23.0143 1.25462 22.9966 1.05659 22.9366 0.870421C22.8767 0.684254 22.7762 0.514984 22.6429 0.375804C22.5097 0.236624 22.3473 0.131295 22.1684 0.0680264C21.9895 0.00475797 21.799 -0.0147404 21.6117 0.0110511C14.1485 0.964643 9.86844 4.4399 7.42899 7.86161L6.28534 7.80042C5.875 7.77722 5.46453 7.8435 5.08033 7.995C4.69612 8.1465 4.34669 8.37986 4.05449 8.68007L2.27031 10.5337C2.24558 10.5555 2.22686 10.5838 2.21602 10.6156C2.20519 10.6473 2.20263 10.6815 2.20861 10.7146C2.21459 10.7478 2.2289 10.7787 2.25007 10.8042C2.27125 10.8298 2.29855 10.849 2.32921 10.8601ZM13.7755 6.34198C14.0847 6.02186 14.4783 5.80409 14.9065 5.7162C15.3348 5.6283 15.7785 5.67421 16.1816 5.84813C16.5848 6.02204 16.9293 6.31617 17.1717 6.69336C17.414 7.07056 17.5434 7.51391 17.5434 7.96743C17.5434 8.42094 17.414 8.86429 17.1717 9.24149C16.9293 9.61868 16.5848 9.91281 16.1816 10.0867C15.7785 10.2606 15.3348 10.3066 14.9065 10.2187C14.4783 10.1308 14.0847 9.913 13.7755 9.59287C13.5696 9.37968 13.4062 9.12636 13.2947 8.84743C13.1832 8.5685 13.1259 8.26945 13.1259 7.96743C13.1259 7.66541 13.1832 7.36636 13.2947 7.08743C13.4062 6.8085 13.5696 6.55517 13.7755 6.34198ZM1.79665 19.7713C1.32423 19.5991 0.816913 19.5569 0.324141 19.6489C0.280345 19.6588 0.234863 19.6569 0.191944 19.6435C0.149026 19.6302 0.110072 19.6057 0.0787231 19.5724C0.0398603 19.5322 0.0138369 19.4806 0.00417915 19.4245C-0.00547861 19.3684 0.00169611 19.3105 0.0247312 19.2588C0.547471 18.0911 1.93408 15.7428 4.44471 17.6398C4.45782 17.652 4.46831 17.6669 4.4755 17.6836C4.48268 17.7003 4.48639 17.7184 4.48639 17.7366C4.48639 17.7549 4.48268 17.773 4.4755 17.7897C4.46831 17.8064 4.45782 17.8213 4.44471 17.8335C4.10859 18.1085 3.83947 18.4619 3.65913 18.8649C3.47879 19.268 3.39228 19.7095 3.40659 20.1538C3.40842 20.2059 3.42917 20.2554 3.46468 20.2923C3.50019 20.3292 3.54783 20.3508 3.59802 20.3526C4.0238 20.3704 4.44766 20.2842 4.83553 20.1009C5.2234 19.9175 5.56447 19.6422 5.83132 19.2971C5.84306 19.2821 5.85785 19.2701 5.87461 19.2618C5.89138 19.2536 5.9097 19.2493 5.92826 19.2493C5.94682 19.2493 5.96514 19.2536 5.98191 19.2618C5.99867 19.2701 6.01346 19.2821 6.0252 19.2971C6.37369 19.728 7.33328 21.1354 6.27062 22.4944C5.8067 23.0737 5.14199 23.4401 4.42017 23.5143C3.38941 23.629 1.48497 23.9783 0.706993 24.9013C0.675763 24.9398 0.635075 24.9687 0.589269 24.985C0.543463 25.0013 0.494257 25.0044 0.446897 24.9939C0.399537 24.9834 0.355801 24.9598 0.320351 24.9256C0.284902 24.8913 0.259069 24.8477 0.245607 24.7993C-0.0292608 23.8254 -0.456288 21.6479 1.79665 19.7713Z" fill="white"/>
</svg>
