<svg width="23" height="22" viewBox="0 0 23 22" fill="none" xmlns="http://www.w3.org/2000/svg">
<path d="M22.5688 21.1316H20.4125V9.8421H16.3875V21.1316H15.8125V0H11.7875V21.1316H11.2125V13.6053H7.1875V21.1316H6.6125V8.10526H2.5875V21.1316H0.43125C0.192913 21.1316 0 21.3261 0 21.5658C0 21.8055 0.192913 22 0.43125 22H22.5688C22.8068 22 23 21.8055 23 21.5658C23 21.3261 22.8068 21.1316 22.5688 21.1316ZM5.75 8.97368V12.0132H3.45V8.97368H5.75ZM14.95 0.868421V3.90789H12.65V0.868421H14.95ZM10.35 14.4737V17.5132H8.05V14.4737H10.35ZM19.55 10.7105V13.75H17.25V10.7105H19.55Z" fill="white"/>
</svg>
