<svg width="23" height="21" viewBox="0 0 23 21" fill="none" xmlns="http://www.w3.org/2000/svg">
<path d="M4.7729 0C4.51975 2.52862e-05 4.27697 0.100601 4.09797 0.279608C3.91896 0.458614 3.81838 0.701392 3.81836 0.954545V16.2273C3.81838 16.4804 3.91896 16.7232 4.09797 16.9022C4.27697 17.0812 4.51975 17.1818 4.7729 17.1818H21.9547C22.2079 17.1818 22.4507 17.0812 22.6297 16.9022C22.8087 16.7232 22.9092 16.4804 22.9093 16.2273V4.77273C22.9092 4.51957 22.8087 4.2768 22.6297 4.09779C22.4507 3.91878 22.2079 3.81821 21.9547 3.81818H13.2557L11.3261 0.477273C11.2423 0.332286 11.122 0.211866 10.977 0.128095C10.832 0.0443236 10.6676 0.00014787 10.5002 0H4.7729Z" fill="white"/>
<path d="M0.954545 3.81824C0.42735 3.81824 0 4.24561 0 4.77278V20.0455C9.54545e-05 20.5727 0.42735 21 0.954545 21.0001H18.1364C18.3895 21.0001 18.6323 20.8995 18.8113 20.7205C18.9903 20.5415 19.0909 20.2987 19.0909 20.0455C19.0909 19.7923 18.9903 19.5496 18.8113 19.3705C18.6323 19.1915 18.3895 19.091 18.1364 19.091H1.90909V4.77278C1.90909 4.24561 1.48174 3.81824 0.954545 3.81824Z" fill="white"/>
</svg>
