<svg width="23" height="21" viewBox="0 0 23 21" fill="none" xmlns="http://www.w3.org/2000/svg">
<path d="M4.7729 0C4.51975 2.52862e-05 4.27697 0.100601 4.09797 0.279608C3.91896 0.458614 3.81838 0.701392 3.81836 0.954545V16.2273C3.81838 16.4804 3.91896 16.7232 4.09797 16.9022C4.27697 17.0812 4.51975 17.1818 4.7729 17.1818H21.9547C22.2079 17.1818 22.4507 17.0812 22.6297 16.9022C22.8087 16.7232 22.9092 16.4804 22.9093 16.2273V4.77273C22.9092 4.51957 22.8087 4.2768 22.6297 4.09779C22.4507 3.91878 22.2079 3.81821 21.9547 3.81818H13.2557L11.3261 0.477273C11.2423 0.332286 11.122 0.211866 10.977 0.128095C10.832 0.0443236 10.6676 0.00014787 10.5002 0H4.7729Z" fill="url(#paint0_linear_31_233)"/>
<path d="M0.954545 3.81818C0.42735 3.81818 0 4.24555 0 4.77272V20.0454C9.54545e-05 20.5726 0.42735 20.9999 0.954545 21H18.1364C18.3895 21 18.6323 20.8994 18.8113 20.7204C18.9903 20.5414 19.0909 20.2986 19.0909 20.0454C19.0909 19.7923 18.9903 19.5495 18.8113 19.3705C18.6323 19.1915 18.3895 19.0909 18.1364 19.0909H1.90909V4.77272C1.90909 4.24555 1.48174 3.81818 0.954545 3.81818Z" fill="url(#paint1_linear_31_233)"/>
<defs>
<linearGradient id="paint0_linear_31_233" x1="3.81836" y1="8.59091" x2="22.9093" y2="8.59091" gradientUnits="userSpaceOnUse">
<stop stop-color="#02A4FF" stop-opacity="0.3"/>
<stop offset="0.39" stop-color="#03CBFF" stop-opacity="0.45"/>
<stop offset="0.675" stop-color="#0EC9FF" stop-opacity="0.86"/>
<stop offset="0.97" stop-color="#0EC9FF"/>
</linearGradient>
<linearGradient id="paint1_linear_31_233" x1="0" y1="12.4091" x2="19.0909" y2="12.4091" gradientUnits="userSpaceOnUse">
<stop stop-color="#02A4FF" stop-opacity="0.3"/>
<stop offset="0.39" stop-color="#03CBFF" stop-opacity="0.45"/>
<stop offset="0.675" stop-color="#0EC9FF" stop-opacity="0.86"/>
<stop offset="0.97" stop-color="#0EC9FF"/>
</linearGradient>
</defs>
</svg>
