<svg width="23" height="22" viewBox="0 0 23 22" fill="none" xmlns="http://www.w3.org/2000/svg">
<path d="M23 21.4913C23 21.7711 22.77 22 22.4889 22H0.511111C0.23 22 0 21.7711 0 21.4913C0 21.2114 0.23 20.9825 0.511111 20.9825H22.4889C22.77 20.9825 23 21.2114 23 21.4913ZM5.62222 18.9475C5.62222 19.2273 5.85222 19.4563 6.13333 19.4563H22.4889C22.77 19.4563 23 19.2273 23 18.9475C23 18.6677 22.77 18.4388 22.4889 18.4388H6.13333C5.85222 18.4388 5.62222 18.6677 5.62222 18.9475ZM0.511111 19.4563H3.57778C3.71322 19.4563 3.84356 19.4029 3.93811 19.3062L18.7603 4.55262C19.8056 3.51224 19.8056 1.82067 18.7603 0.780286C17.7151 -0.260095 16.0157 -0.260095 14.9704 0.780286L0.148222 15.5339C0.0536666 15.6305 0 15.7603 0 15.8951V18.9475C0 19.2273 0.23 19.4563 0.511111 19.4563Z" fill="white"/>
</svg>
